<svg xmlns="http://www.w3.org/2000/svg" width="115" height="43.093" viewBox="0 0 115 43.093">
  <path id="Path_112" data-name="Path 112" d="M113.612,35.868a13.5,13.5,0,0,1-4.845,5.241,12.947,12.947,0,0,1-6.828,1.983c-.34,0-.708-.028-1.048-.057a11.181,11.181,0,0,1-7.31-3.485h0a10.872,10.872,0,0,1-2.89-7.451h0c0-.34.028-.68.057-1.048a12.834,12.834,0,0,1,4.221-8.3,13.154,13.154,0,0,1,8.783-3.428c.34,0,.708.028,1.048.057a11.311,11.311,0,0,1,7.31,3.485h0A10.872,10.872,0,0,1,115,30.315c0,.34-.028.68-.057,1.048L114.8,32.95H99.332l.368-3.485H111.43a7.37,7.37,0,0,0-1.927-4.278h0a7.707,7.707,0,0,0-4.986-2.38,6.4,6.4,0,0,0-.737-.028A9.483,9.483,0,0,0,97.406,25.3a9.214,9.214,0,0,0-3.088,6.063,6.654,6.654,0,0,0-.028.737h0a7.417,7.417,0,0,0,1.983,5.128h0a7.576,7.576,0,0,0,4.986,2.38,6.4,6.4,0,0,0,.737.028,9.357,9.357,0,0,0,4.958-1.445,9.749,9.749,0,0,0,3.457-3.655c.028-.085.085-.142.113-.227l1.3.652.283.142ZM101.032,16.489h-7.82l-.51-.51-5.525-5.468-3.513,4.25L89.5,19.719l.793.652-.2.992-1.927,9.18-.538,2.578h-3.6l2.408-11.446-6.346-5.383-1.3-1.1,1.077-1.3L85.7,6.828l1.247-1.5,1.388,1.36,6.318,6.346H101v3.457ZM91.994,0a3.187,3.187,0,0,1,3.2,3.145,3.2,3.2,0,0,1-6.4,0A3.168,3.168,0,0,1,91.994,0ZM79.642,35.868A13.5,13.5,0,0,1,74.8,41.11a12.947,12.947,0,0,1-6.828,1.983c-.34,0-.708-.028-1.048-.057a11.181,11.181,0,0,1-7.31-3.485h0a10.872,10.872,0,0,1-2.89-7.451h0c0-.34.028-.68.057-1.048A12.834,12.834,0,0,1,61,22.751a13.154,13.154,0,0,1,8.783-3.428c.34,0,.708.028,1.048.057a11.311,11.311,0,0,1,7.31,3.485h0a10.872,10.872,0,0,1,2.89,7.451c0,.34-.028.68-.057,1.048l-.142,1.587H65.362l.368-3.485H77.46a7.37,7.37,0,0,0-1.927-4.278h0a7.707,7.707,0,0,0-4.986-2.38,6.4,6.4,0,0,0-.737-.028A9.483,9.483,0,0,0,63.436,25.3a9.214,9.214,0,0,0-3.088,6.063,6.654,6.654,0,0,0-.028.737h0A7.417,7.417,0,0,0,62.3,37.228h0a7.576,7.576,0,0,0,4.986,2.38,6.4,6.4,0,0,0,.737.028,9.357,9.357,0,0,0,4.958-1.445,9.749,9.749,0,0,0,3.457-3.655c.028-.085.085-.142.113-.227l1.3.652.283.142ZM53.179,13.713a10.345,10.345,0,0,1,7.083-2.975h2.578l-.028.34-.255,2.89-.028.283H60.007a6.212,6.212,0,0,0-4.08,1.587,8.2,8.2,0,0,0-2.352,3.768h3.343l-.028.34-.227,2.975-.028.283H54.284a1.528,1.528,0,0,0-1.02.255,1.025,1.025,0,0,0-.17.425L51.451,42.5l-.028.283H47.768l.028-.34,1.9-21.646A11.578,11.578,0,0,1,53.179,13.713ZM41.138,32.837h0l-7.395.028a10.912,10.912,0,0,0-4.7.85,2.733,2.733,0,0,0-1.672,2.295v.227h0a2.267,2.267,0,0,0,1.247,2.04,9.021,9.021,0,0,0,3.712.963,17.331,17.331,0,0,0,1.757.057,14.581,14.581,0,0,0,5.61-.907,2.986,2.986,0,0,0,2.04-2.437l.255-3.2a8.083,8.083,0,0,1-.85.085Zm.765,8.216a16.256,16.256,0,0,1-8.046,1.813c-.595,0-1.19-.028-1.728-.057a11.755,11.755,0,0,1-5.978-1.87,5.255,5.255,0,0,1-2.295-4.42,3.429,3.429,0,0,1,.028-.538,6.268,6.268,0,0,1,3.032-4.845,13.314,13.314,0,0,1,7.14-1.842h7.423a.857.857,0,0,0,.453-.113.891.891,0,0,0,.4-.793l.113-1.417V26.66a3,3,0,0,0-1.587-2.635,8.9,8.9,0,0,0-3.74-1.048c-.368-.028-.737-.057-1.133-.057a11.54,11.54,0,0,0-3.683.68,6.065,6.065,0,0,0-2.522,1.53l-1.02,1.19-.17.2-.2-.17-2.295-1.785-.2-.17.17-.2,1.02-1.19a9.579,9.579,0,0,1,3.881-2.55,15,15,0,0,1,5.3-1.02c.4,0,.765.028,1.162.057a11.611,11.611,0,0,1,5.893,1.983,6,6,0,0,1,2.663,5.015,3.99,3.99,0,0,1-.028.567l-.737,9.01A6.126,6.126,0,0,1,41.9,41.053ZM14.053,29.409c4.08.992,8.1,1.983,7.735,6.2A6.941,6.941,0,0,1,18.7,40.657a12.87,12.87,0,0,1-4.533,1.955,17.3,17.3,0,0,1-5.27.368C5.411,42.7,2.1,41.308.2,38.758L0,38.532l.255-.17,2.55-1.9.255-.2.17.283A8.677,8.677,0,0,0,9.888,40a12.833,12.833,0,0,0,3.315-.17,7.934,7.934,0,0,0,2.8-1.077,4.02,4.02,0,0,0,2.04-3.06c.142-1.757-1.927-2.125-4.306-2.55-.822-.142-1.672-.283-2.493-.51-.4-.113-.85-.227-1.332-.34-4.278-1.077-8.33-2.068-7.933-6.431a6.074,6.074,0,0,1,2.663-4.476,10.655,10.655,0,0,1,3.91-1.7,15.677,15.677,0,0,1,4.618-.312c3.343.283,6.658,1.643,8.556,4.193l.17.255-.255.17L19.1,25.9l-.2.17-.2-.283a8.666,8.666,0,0,0-6.488-3.457,9,9,0,0,0-2.635.142,6.12,6.12,0,0,0-2.153.85A3.334,3.334,0,0,0,5.78,25.924c-.17,1.813,1.955,2.182,4.363,2.635a24.306,24.306,0,0,1,2.408.51C13.033,29.182,13.543,29.3,14.053,29.409Zm71.709,3.74-.085.34" fill="#69c07a"/>
</svg>
